# MagicaVoxel @ Ephtracy

# group
o Paving 5

# material
mtllib FILKOM-5-Paving 5.mtl
usemtl palette

# normals
vn 1 0 0
vn -1 0 0
vn 0 0 -1
vn 0 0 1
vn 0 -1 0
vn 0 1 0

# texcoords
vt 0.876953 0.5
vt 0.880859 0.5
vt 0.884766 0.5
vt 0.888672 0.5
vt 0.892578 0.5
vt 0.896484 0.5
vt 0.900391 0.5

# verts
v 20.5 -0.2 24.3
v 20.5 -0.2 26.9
v 20.5 -0.1 24.3
v 20.5 -0.1 26.9
v 20.5 0.1 24.3
v 20.5 0.1 26.9
v 19.5 0 24.3
v 19.5 0 26.9
v 19.5 0.1 24.3
v 19.5 0.1 26.9
v 19.2 0 25.9
v 19.2 0 26.2
v 19.2 0.2 26
v 19.2 0.2 26.1
v 19.2 0.3 24.6
v 19.2 0.3 24.7
v 19.2 0.4 24.5
v 19.2 0.4 24.6
v 19.2 0.4 25.1
v 19.2 0.4 25.4
v 19.2 0.4 26
v 19.2 0.4 26.1
v 19.2 0.5 24.4
v 19.2 0.5 24.5
v 19.2 0.5 25.1
v 19.2 0.5 25.2
v 19.2 0.5 25.9
v 19.2 0.5 26.2
v 19.2 0.6 24.4
v 19.2 0.6 24.7
v 19.2 0.6 25.1
v 19.2 0.6 25.2
v 19.2 0.6 25.3
v 19.2 0.7 25.1
v 19.2 0.7 25.2
v 19.2 0.7 25.3
v 19.2 0.7 25.4
v 19.2 0.8 25.2
v 19.2 0.8 25.3
v 19.1 0 24.5
v 19.1 0 24.6
v 19.1 0 25.2
v 19.1 0 25.3
v 19.1 0.3 24.4
v 19.1 0.3 24.5
v 19.1 0.3 24.6
v 19.1 0.4 24.5
v 19.1 0.4 24.6
v 19.1 0.4 25.2
v 19.1 0.4 25.3
v 19.1 0.5 24.4
v 19.1 0.5 24.5
v 19.1 0.5 25.1
v 19.1 0.5 25.2
v 19.1 0.6 24.4
v 19.1 0.6 24.6
v 19.1 0.6 25.1
v 19.1 0.6 25.2
v 19.1 0.6 25.3
v 19.1 0.7 24.4
v 19.1 0.7 24.6
v 19.1 0.7 25.1
v 19.1 0.7 25.2
v 19.1 0.7 25.3
v 19.1 0.7 25.4
v 19.1 0.8 25.1
v 19.1 0.8 25.2
v 19.1 0.8 25.3
v 19.1 0.8 25.4
v 19 0.2 25.9
v 19 0.2 26
v 19 0.2 26.1
v 19 0.2 26.2
v 19 0.4 25.9
v 19 0.4 26
v 19 0.4 26.1
v 19 0.4 26.2
v 18.8 0 24.3
v 18.8 0 26.9
v 18.8 0.1 24.3
v 18.8 0.1 26.9
v 20.3 0 24.3
v 20.3 0 26.9
v 20.3 0.1 24.3
v 20.3 0.1 26.9
v 19.3 0 24.3
v 19.3 0 26.9
v 19.3 0.1 24.3
v 19.3 0.1 26.9
v 19.1 0.2 25.9
v 19.1 0.2 26
v 19.1 0.2 26.1
v 19.1 0.2 26.2
v 19.1 0.4 25.9
v 19.1 0.4 26
v 19.1 0.4 26.1
v 19.1 0.4 26.2
v 19.1 0.5 24.4
v 19.1 0.5 24.5
v 19.1 0.6 24.4
v 19.1 0.6 24.5
v 19 0 24.5
v 19 0 24.6
v 19 0 25.2
v 19 0 25.3
v 19 0.3 24.4
v 19 0.3 24.5
v 19 0.3 24.6
v 19 0.3 24.7
v 19 0.4 24.6
v 19 0.4 24.7
v 19 0.4 25.1
v 19 0.4 25.2
v 19 0.4 25.3
v 19 0.4 25.4
v 19 0.5 24.4
v 19 0.5 24.5
v 19 0.5 25.2
v 19 0.5 25.3
v 19 0.6 25.1
v 19 0.6 25.2
v 19 0.6 25.3
v 19 0.6 25.4
v 19 0.7 25.1
v 19 0.7 25.2
v 19 0.8 25.1
v 19 0.8 25.2
v 18.9 0 25.9
v 18.9 0 26.2
v 18.9 0.2 26
v 18.9 0.2 26.1
v 18.9 0.3 24.5
v 18.9 0.3 24.6
v 18.9 0.4 24.6
v 18.9 0.4 24.7
v 18.9 0.4 26
v 18.9 0.4 26.1
v 18.9 0.5 25.2
v 18.9 0.5 25.3
v 18.9 0.5 25.9
v 18.9 0.5 26.2
v 18.9 0.6 24.4
v 18.9 0.6 24.5
v 18.9 0.6 24.6
v 18.9 0.6 24.7
v 18.9 0.6 25.1
v 18.9 0.6 25.2
v 18.9 0.6 25.3
v 18.9 0.6 25.4
v 18.9 0.7 24.4
v 18.9 0.7 24.6
v 18.9 0.7 25.1
v 18.9 0.7 25.2
v 18.9 0.8 25.2
v 18.9 0.8 25.4
v 18.6 -0.2 24.3
v 18.6 -0.2 26.9
v 18.6 -0.1 24.3
v 18.6 -0.1 26.9
v 18.6 0.1 24.3
v 18.6 0.1 26.9
v 20.5 -0.2 24.3
v 20.5 -0.1 24.3
v 20.5 0.1 24.3
v 20.3 -0.1 24.3
v 20.3 0 24.3
v 20.3 0.1 24.3
v 19.5 0 24.3
v 19.5 0.1 24.3
v 19.3 -0.1 24.3
v 19.3 0 24.3
v 19.3 0.1 24.3
v 18.8 -0.1 24.3
v 18.8 0 24.3
v 18.8 0.1 24.3
v 18.6 -0.2 24.3
v 18.6 -0.1 24.3
v 18.6 0.1 24.3
v 19.2 0.5 24.4
v 19.2 0.6 24.4
v 19.1 0.3 24.4
v 19.1 0.5 24.4
v 19.1 0.6 24.4
v 19.1 0.7 24.4
v 19 0.3 24.4
v 19 0.5 24.4
v 18.9 0.6 24.4
v 18.9 0.7 24.4
v 19.2 0.4 24.5
v 19.2 0.5 24.5
v 19.1 0 24.5
v 19.1 0.3 24.5
v 19.1 0.4 24.5
v 19.1 0.5 24.5
v 19.1 0.6 24.5
v 19 0 24.5
v 19 0.3 24.5
v 19 0.5 24.5
v 18.9 0.3 24.5
v 18.9 0.6 24.5
v 19.2 0.3 24.6
v 19.2 0.4 24.6
v 19.1 0.3 24.6
v 19.1 0.4 24.6
v 19.2 0.4 25.1
v 19.2 0.5 25.1
v 19.2 0.6 25.1
v 19.2 0.7 25.1
v 19.1 0.5 25.1
v 19.1 0.6 25.1
v 19.1 0.7 25.1
v 19.1 0.8 25.1
v 19 0.4 25.1
v 19 0.6 25.1
v 19 0.7 25.1
v 19 0.8 25.1
v 18.9 0.6 25.1
v 18.9 0.7 25.1
v 19.2 0.5 25.2
v 19.2 0.6 25.2
v 19.2 0.7 25.2
v 19.2 0.8 25.2
v 19.1 0 25.2
v 19.1 0.4 25.2
v 19.1 0.5 25.2
v 19.1 0.6 25.2
v 19.1 0.7 25.2
v 19.1 0.8 25.2
v 19 0 25.2
v 19 0.4 25.2
v 19 0.5 25.2
v 19 0.6 25.2
v 19 0.7 25.2
v 19 0.8 25.2
v 18.9 0.5 25.2
v 18.9 0.6 25.2
v 18.9 0.7 25.2
v 18.9 0.8 25.2
v 19.2 0.6 25.3
v 19.2 0.7 25.3
v 19.1 0.6 25.3
v 19.1 0.7 25.3
v 19.2 0 25.9
v 19.2 0.5 25.9
v 19.1 0.2 25.9
v 19.1 0.4 25.9
v 19 0.2 25.9
v 19 0.4 25.9
v 18.9 0 25.9
v 18.9 0.5 25.9
v 19.2 0.2 26.1
v 19.2 0.4 26.1
v 19.1 0.2 26.1
v 19.1 0.4 26.1
v 19 0.2 26.1
v 19 0.4 26.1
v 18.9 0.2 26.1
v 18.9 0.4 26.1
v 19.1 0 24.6
v 19.1 0.3 24.6
v 19.1 0.6 24.6
v 19.1 0.7 24.6
v 19 0 24.6
v 19 0.3 24.6
v 19 0.4 24.6
v 18.9 0.3 24.6
v 18.9 0.4 24.6
v 18.9 0.6 24.6
v 18.9 0.7 24.6
v 19.2 0.3 24.7
v 19.2 0.6 24.7
v 19 0.3 24.7
v 19 0.4 24.7
v 18.9 0.4 24.7
v 18.9 0.6 24.7
v 19.2 0.6 25.2
v 19.2 0.7 25.2
v 19.1 0.6 25.2
v 19.1 0.7 25.2
v 19.2 0.7 25.3
v 19.2 0.8 25.3
v 19.1 0 25.3
v 19.1 0.4 25.3
v 19.1 0.7 25.3
v 19.1 0.8 25.3
v 19 0 25.3
v 19 0.4 25.3
v 19 0.5 25.3
v 19 0.6 25.3
v 18.9 0.5 25.3
v 18.9 0.6 25.3
v 19.2 0.4 25.4
v 19.2 0.7 25.4
v 19.1 0.7 25.4
v 19.1 0.8 25.4
v 19 0.4 25.4
v 19 0.6 25.4
v 18.9 0.6 25.4
v 18.9 0.8 25.4
v 19.2 0.2 26
v 19.2 0.4 26
v 19.1 0.2 26
v 19.1 0.4 26
v 19 0.2 26
v 19 0.4 26
v 18.9 0.2 26
v 18.9 0.4 26
v 19.2 0 26.2
v 19.2 0.5 26.2
v 19.1 0.2 26.2
v 19.1 0.4 26.2
v 19 0.2 26.2
v 19 0.4 26.2
v 18.9 0 26.2
v 18.9 0.5 26.2
v 20.5 -0.2 26.9
v 20.5 -0.1 26.9
v 20.5 0.1 26.9
v 20.3 -0.1 26.9
v 20.3 0 26.9
v 20.3 0.1 26.9
v 19.5 -0.1 26.9
v 19.5 0 26.9
v 19.5 0.1 26.9
v 19.3 -0.1 26.9
v 19.3 0 26.9
v 19.3 0.1 26.9
v 18.8 -0.1 26.9
v 18.8 0 26.9
v 18.8 0.1 26.9
v 18.6 -0.2 26.9
v 18.6 -0.1 26.9
v 18.6 0.1 26.9
v 20.5 -0.2 24.3
v 18.6 -0.2 24.3
v 20.5 -0.2 26.9
v 18.6 -0.2 26.9
v 19.1 0.3 24.4
v 19 0.3 24.4
v 19.1 0.3 24.5
v 19 0.3 24.5
v 18.9 0.3 24.5
v 19.2 0.3 24.6
v 19.1 0.3 24.6
v 19 0.3 24.6
v 18.9 0.3 24.6
v 19.2 0.3 24.7
v 19 0.3 24.7
v 19.2 0.4 24.5
v 19.1 0.4 24.5
v 19.2 0.4 24.6
v 19.1 0.4 24.6
v 19 0.4 24.6
v 18.9 0.4 24.6
v 19 0.4 24.7
v 18.9 0.4 24.7
v 19.2 0.4 25.1
v 19 0.4 25.1
v 19.1 0.4 25.2
v 19 0.4 25.2
v 19.1 0.4 25.3
v 19 0.4 25.3
v 19.2 0.4 25.4
v 19 0.4 25.4
v 19.1 0.4 25.9
v 19 0.4 25.9
v 19.2 0.4 26
v 19.1 0.4 26
v 19 0.4 26
v 18.9 0.4 26
v 19.2 0.4 26.1
v 19.1 0.4 26.1
v 19 0.4 26.1
v 18.9 0.4 26.1
v 19.1 0.4 26.2
v 19 0.4 26.2
v 19.2 0.5 24.4
v 19.1 0.5 24.4
v 19.2 0.5 24.5
v 19.1 0.5 24.5
v 19 0.5 25.2
v 18.9 0.5 25.2
v 19 0.5 25.3
v 18.9 0.5 25.3
v 19.1 0.6 24.4
v 18.9 0.6 24.4
v 19.1 0.6 24.5
v 18.9 0.6 24.5
v 19.2 0.6 25.1
v 19.1 0.6 25.1
v 19 0.6 25.1
v 18.9 0.6 25.1
v 19.2 0.6 25.2
v 19.1 0.6 25.2
v 19 0.6 25.2
v 18.9 0.6 25.2
v 19 0.6 25.3
v 18.9 0.6 25.3
v 19 0.6 25.4
v 18.9 0.6 25.4
v 19.2 0.7 25.2
v 19.1 0.7 25.2
v 19.2 0.7 25.3
v 19.1 0.7 25.3
v 20.3 0 24.3
v 19.5 0 24.3
v 19.3 0 24.3
v 18.8 0 24.3
v 19.1 0 24.5
v 19 0 24.5
v 19.1 0 24.6
v 19 0 24.6
v 19.1 0 25.2
v 19 0 25.2
v 19.1 0 25.3
v 19 0 25.3
v 19.2 0 25.9
v 18.9 0 25.9
v 19.2 0 26.2
v 18.9 0 26.2
v 20.3 0 26.9
v 19.5 0 26.9
v 19.3 0 26.9
v 18.8 0 26.9
v 20.5 0.1 24.3
v 20.3 0.1 24.3
v 19.5 0.1 24.3
v 19.3 0.1 24.3
v 18.8 0.1 24.3
v 18.6 0.1 24.3
v 20.5 0.1 26.9
v 20.3 0.1 26.9
v 19.5 0.1 26.9
v 19.3 0.1 26.9
v 18.8 0.1 26.9
v 18.6 0.1 26.9
v 19.1 0.2 25.9
v 19 0.2 25.9
v 19.2 0.2 26
v 19.1 0.2 26
v 19 0.2 26
v 18.9 0.2 26
v 19.2 0.2 26.1
v 19.1 0.2 26.1
v 19 0.2 26.1
v 18.9 0.2 26.1
v 19.1 0.2 26.2
v 19 0.2 26.2
v 19.1 0.5 24.4
v 19 0.5 24.4
v 19.1 0.5 24.5
v 19 0.5 24.5
v 19.2 0.5 25.1
v 19.1 0.5 25.1
v 19.2 0.5 25.2
v 19.1 0.5 25.2
v 19.2 0.5 25.9
v 18.9 0.5 25.9
v 19.2 0.5 26.2
v 18.9 0.5 26.2
v 19.2 0.6 24.4
v 19.1 0.6 24.4
v 19.1 0.6 24.6
v 18.9 0.6 24.6
v 19.2 0.6 24.7
v 18.9 0.6 24.7
v 19.2 0.6 25.2
v 19.1 0.6 25.2
v 19.2 0.6 25.3
v 19.1 0.6 25.3
v 19.1 0.7 24.4
v 18.9 0.7 24.4
v 19.1 0.7 24.6
v 18.9 0.7 24.6
v 19.2 0.7 25.1
v 19.1 0.7 25.1
v 19 0.7 25.1
v 18.9 0.7 25.1
v 19.2 0.7 25.2
v 19.1 0.7 25.2
v 19 0.7 25.2
v 18.9 0.7 25.2
v 19.2 0.7 25.3
v 19.1 0.7 25.3
v 19.2 0.7 25.4
v 19.1 0.7 25.4
v 19.1 0.8 25.1
v 19 0.8 25.1
v 19.2 0.8 25.2
v 19.1 0.8 25.2
v 19 0.8 25.2
v 18.9 0.8 25.2
v 19.2 0.8 25.3
v 19.1 0.8 25.3
v 19.1 0.8 25.4
v 18.9 0.8 25.4

# faces
f 3/1/1 2/1/1 1/1/1
f 4/1/1 2/1/1 3/1/1
f 5/4/1 4/4/1 3/4/1
f 6/4/1 4/4/1 5/4/1
f 9/4/1 8/4/1 7/4/1
f 10/4/1 8/4/1 9/4/1
f 13/6/1 12/6/1 11/6/1
f 14/6/1 12/6/1 13/6/1
f 18/7/1 16/7/1 15/7/1
f 21/6/1 13/6/1 11/6/1
f 22/6/1 12/6/1 14/6/1
f 24/7/1 18/7/1 17/7/1
f 25/7/1 20/7/1 19/7/1
f 26/7/1 20/7/1 25/7/1
f 27/6/1 21/6/1 11/6/1
f 27/6/1 22/6/1 21/6/1
f 28/6/1 12/6/1 22/6/1
f 28/6/1 22/6/1 27/6/1
f 29/7/1 24/7/1 23/7/1
f 30/7/1 16/7/1 18/7/1
f 30/7/1 24/7/1 29/7/1
f 30/7/1 18/7/1 24/7/1
f 32/7/1 20/7/1 26/7/1
f 33/7/1 20/7/1 32/7/1
f 34/7/1 32/7/1 31/7/1
f 35/7/1 32/7/1 34/7/1
f 36/7/1 20/7/1 33/7/1
f 37/7/1 20/7/1 36/7/1
f 38/7/1 36/7/1 35/7/1
f 39/7/1 36/7/1 38/7/1
f 45/5/1 41/5/1 40/5/1
f 46/5/1 41/5/1 45/5/1
f 47/7/1 45/7/1 44/7/1
f 47/7/1 46/7/1 45/7/1
f 48/7/1 46/7/1 47/7/1
f 49/5/1 43/5/1 42/5/1
f 50/5/1 43/5/1 49/5/1
f 51/7/1 47/7/1 44/7/1
f 52/7/1 47/7/1 51/7/1
f 57/7/1 54/7/1 53/7/1
f 58/7/1 54/7/1 57/7/1
f 60/7/1 56/7/1 55/7/1
f 61/7/1 56/7/1 60/7/1
f 63/7/1 59/7/1 58/7/1
f 64/7/1 59/7/1 63/7/1
f 66/7/1 63/7/1 62/7/1
f 67/7/1 63/7/1 66/7/1
f 68/7/1 65/7/1 64/7/1
f 69/7/1 65/7/1 68/7/1
f 74/6/1 71/6/1 70/6/1
f 75/6/1 71/6/1 74/6/1
f 76/6/1 73/6/1 72/6/1
f 77/6/1 73/6/1 76/6/1
f 80/4/1 79/4/1 78/4/1
f 81/4/1 79/4/1 80/4/1
f 82/4/2 83/4/2 84/4/2
f 84/4/2 83/4/2 85/4/2
f 86/4/2 87/4/2 88/4/2
f 88/4/2 87/4/2 89/4/2
f 90/6/2 91/6/2 94/6/2
f 94/6/2 91/6/2 95/6/2
f 92/6/2 93/6/2 96/6/2
f 96/6/2 93/6/2 97/6/2
f 98/7/2 99/7/2 100/7/2
f 100/7/2 99/7/2 101/7/2
f 102/5/2 103/5/2 107/5/2
f 107/5/2 103/5/2 108/5/2
f 108/7/2 109/7/2 110/7/2
f 110/7/2 109/7/2 111/7/2
f 104/5/2 105/5/2 113/5/2
f 113/5/2 105/5/2 114/5/2
f 106/7/2 107/7/2 116/7/2
f 116/7/2 107/7/2 117/7/2
f 114/7/2 115/7/2 118/7/2
f 113/7/2 114/7/2 118/7/2
f 112/7/2 113/7/2 118/7/2
f 118/7/2 115/7/2 119/7/2
f 112/7/2 118/7/2 120/7/2
f 120/7/2 118/7/2 121/7/2
f 119/7/2 115/7/2 122/7/2
f 122/7/2 115/7/2 123/7/2
f 124/7/2 125/7/2 126/7/2
f 126/7/2 125/7/2 127/7/2
f 128/6/2 129/6/2 130/6/2
f 130/6/2 129/6/2 131/6/2
f 132/7/2 133/7/2 134/7/2
f 128/6/2 130/6/2 136/6/2
f 131/6/2 129/6/2 137/6/2
f 128/6/2 136/6/2 140/6/2
f 136/6/2 137/6/2 140/6/2
f 137/6/2 129/6/2 141/6/2
f 140/6/2 137/6/2 141/6/2
f 134/7/2 135/7/2 143/7/2
f 132/7/2 134/7/2 143/7/2
f 143/7/2 135/7/2 144/7/2
f 144/7/2 135/7/2 145/7/2
f 138/7/2 139/7/2 147/7/2
f 147/7/2 139/7/2 148/7/2
f 142/7/2 143/7/2 150/7/2
f 143/7/2 144/7/2 150/7/2
f 150/7/2 144/7/2 151/7/2
f 148/7/2 149/7/2 152/7/2
f 147/7/2 148/7/2 152/7/2
f 146/7/2 147/7/2 152/7/2
f 152/7/2 149/7/2 153/7/2
f 153/7/2 149/7/2 154/7/2
f 154/7/2 149/7/2 155/7/2
f 156/1/2 157/1/2 158/1/2
f 158/1/2 157/1/2 159/1/2
f 158/4/2 159/4/2 160/4/2
f 160/4/2 159/4/2 161/4/2
f 165/1/3 163/1/3 162/1/3
f 165/4/3 164/4/3 163/4/3
f 166/4/3 164/4/3 165/4/3
f 167/4/3 164/4/3 166/4/3
f 168/3/3 166/3/3 165/3/3
f 170/1/3 165/1/3 162/1/3
f 170/3/3 168/3/3 165/3/3
f 171/4/3 169/4/3 168/4/3
f 171/3/3 168/3/3 170/3/3
f 172/4/3 169/4/3 171/4/3
f 173/1/3 170/1/3 162/1/3
f 173/2/3 171/2/3 170/2/3
f 174/2/3 171/2/3 173/2/3
f 176/1/3 173/1/3 162/1/3
f 177/4/3 175/4/3 174/4/3
f 177/1/3 173/1/3 176/1/3
f 177/4/3 174/4/3 173/4/3
f 178/4/3 175/4/3 177/4/3
f 182/7/3 180/7/3 179/7/3
f 183/7/3 180/7/3 182/7/3
f 185/7/3 182/7/3 181/7/3
f 186/7/3 182/7/3 185/7/3
f 187/7/3 184/7/3 183/7/3
f 188/7/3 184/7/3 187/7/3
f 193/7/3 190/7/3 189/7/3
f 194/7/3 190/7/3 193/7/3
f 196/5/3 192/5/3 191/5/3
f 197/5/3 192/5/3 196/5/3
f 198/7/3 195/7/3 194/7/3
f 199/7/3 198/7/3 197/7/3
f 200/7/3 195/7/3 198/7/3
f 200/7/3 198/7/3 199/7/3
f 203/7/3 202/7/3 201/7/3
f 204/7/3 202/7/3 203/7/3
f 209/7/3 206/7/3 205/7/3
f 210/7/3 208/7/3 207/7/3
f 211/7/3 208/7/3 210/7/3
f 213/7/3 209/7/3 205/7/3
f 213/7/3 212/7/3 211/7/3
f 213/7/3 211/7/3 210/7/3
f 213/7/3 210/7/3 209/7/3
f 214/7/3 212/7/3 213/7/3
f 215/7/3 212/7/3 214/7/3
f 216/7/3 212/7/3 215/7/3
f 217/7/3 215/7/3 214/7/3
f 218/7/3 215/7/3 217/7/3
f 225/7/3 220/7/3 219/7/3
f 226/7/3 220/7/3 225/7/3
f 227/7/3 222/7/3 221/7/3
f 228/7/3 222/7/3 227/7/3
f 229/5/3 224/5/3 223/5/3
f 230/5/3 224/5/3 229/5/3
f 235/7/3 232/7/3 231/7/3
f 236/7/3 232/7/3 235/7/3
f 237/7/3 234/7/3 233/7/3
f 238/7/3 234/7/3 237/7/3
f 241/7/3 240/7/3 239/7/3
f 242/7/3 240/7/3 241/7/3
f 245/6/3 244/6/3 243/6/3
f 246/6/3 244/6/3 245/6/3
f 247/6/3 245/6/3 243/6/3
f 248/6/3 244/6/3 246/6/3
f 249/6/3 247/6/3 243/6/3
f 249/6/3 248/6/3 247/6/3
f 250/6/3 244/6/3 248/6/3
f 250/6/3 248/6/3 249/6/3
f 253/6/3 252/6/3 251/6/3
f 254/6/3 252/6/3 253/6/3
f 257/6/3 256/6/3 255/6/3
f 258/6/3 256/6/3 257/6/3
f 259/5/4 260/5/4 263/5/4
f 263/5/4 260/5/4 264/5/4
f 264/7/4 265/7/4 266/7/4
f 266/7/4 265/7/4 267/7/4
f 261/7/4 262/7/4 268/7/4
f 268/7/4 262/7/4 269/7/4
f 270/7/4 271/7/4 272/7/4
f 272/7/4 271/7/4 273/7/4
f 273/7/4 271/7/4 274/7/4
f 274/7/4 271/7/4 275/7/4
f 276/7/4 277/7/4 278/7/4
f 278/7/4 277/7/4 279/7/4
f 280/7/4 281/7/4 284/7/4
f 284/7/4 281/7/4 285/7/4
f 282/5/4 283/5/4 286/5/4
f 286/5/4 283/5/4 287/5/4
f 288/7/4 289/7/4 290/7/4
f 290/7/4 289/7/4 291/7/4
f 292/7/4 293/7/4 294/7/4
f 292/7/4 294/7/4 296/7/4
f 294/7/4 295/7/4 296/7/4
f 296/7/4 295/7/4 297/7/4
f 297/7/4 295/7/4 298/7/4
f 298/7/4 295/7/4 299/7/4
f 300/6/4 301/6/4 302/6/4
f 302/6/4 301/6/4 303/6/4
f 304/6/4 305/6/4 306/6/4
f 306/6/4 305/6/4 307/6/4
f 308/6/4 309/6/4 310/6/4
f 310/6/4 309/6/4 311/6/4
f 308/6/4 310/6/4 312/6/4
f 311/6/4 309/6/4 313/6/4
f 308/6/4 312/6/4 314/6/4
f 312/6/4 313/6/4 314/6/4
f 313/6/4 309/6/4 315/6/4
f 314/6/4 313/6/4 315/6/4
f 316/1/4 317/1/4 319/1/4
f 317/4/4 318/4/4 319/4/4
f 319/4/4 318/4/4 320/4/4
f 320/4/4 318/4/4 321/4/4
f 316/1/4 319/1/4 322/1/4
f 319/3/4 320/3/4 322/3/4
f 322/3/4 320/3/4 323/3/4
f 316/1/4 322/1/4 325/1/4
f 323/4/4 324/4/4 325/4/4
f 322/4/4 323/4/4 325/4/4
f 325/4/4 324/4/4 326/4/4
f 326/4/4 324/4/4 327/4/4
f 316/1/4 325/1/4 328/1/4
f 325/2/4 326/2/4 328/2/4
f 328/2/4 326/2/4 329/2/4
f 316/1/4 328/1/4 331/1/4
f 329/4/4 330/4/4 332/4/4
f 331/1/4 328/1/4 332/1/4
f 328/4/4 329/4/4 332/4/4
f 332/4/4 330/4/4 333/4/4
f 336/1/5 335/1/5 334/1/5
f 337/1/5 335/1/5 336/1/5
f 340/7/5 339/7/5 338/7/5
f 341/7/5 339/7/5 340/7/5
f 345/7/5 342/7/5 341/7/5
f 346/7/5 342/7/5 345/7/5
f 347/7/5 344/7/5 343/7/5
f 347/7/5 345/7/5 344/7/5
f 348/7/5 345/7/5 347/7/5
f 351/7/5 350/7/5 349/7/5
f 352/7/5 350/7/5 351/7/5
f 355/7/5 354/7/5 353/7/5
f 356/7/5 354/7/5 355/7/5
f 359/7/5 358/7/5 357/7/5
f 360/7/5 358/7/5 359/7/5
f 361/7/5 359/7/5 357/7/5
f 363/7/5 361/7/5 357/7/5
f 363/7/5 362/7/5 361/7/5
f 364/7/5 362/7/5 363/7/5
f 368/6/5 366/6/5 365/6/5
f 369/6/5 366/6/5 368/6/5
f 371/6/5 369/6/5 368/6/5
f 371/6/5 370/6/5 369/6/5
f 371/6/5 368/6/5 367/6/5
f 372/6/5 370/6/5 371/6/5
f 373/6/5 370/6/5 372/6/5
f 374/6/5 370/6/5 373/6/5
f 375/6/5 373/6/5 372/6/5
f 376/6/5 373/6/5 375/6/5
f 379/7/5 378/7/5 377/7/5
f 380/7/5 378/7/5 379/7/5
f 383/7/5 382/7/5 381/7/5
f 384/7/5 382/7/5 383/7/5
f 387/7/5 386/7/5 385/7/5
f 388/7/5 386/7/5 387/7/5
f 393/7/5 390/7/5 389/7/5
f 394/7/5 390/7/5 393/7/5
f 395/7/5 392/7/5 391/7/5
f 396/7/5 392/7/5 395/7/5
f 399/7/5 398/7/5 397/7/5
f 400/7/5 398/7/5 399/7/5
f 403/7/5 402/7/5 401/7/5
f 404/7/5 402/7/5 403/7/5
f 407/2/6 408/2/6 409/2/6
f 409/2/6 408/2/6 410/2/6
f 407/2/6 409/2/6 411/2/6
f 410/2/6 408/2/6 412/2/6
f 407/2/6 411/2/6 413/2/6
f 411/2/6 412/2/6 413/2/6
f 412/2/6 408/2/6 414/2/6
f 413/2/6 412/2/6 414/2/6
f 407/2/6 413/2/6 415/2/6
f 414/2/6 408/2/6 416/2/6
f 407/2/6 415/2/6 417/2/6
f 415/2/6 416/2/6 417/2/6
f 416/2/6 408/2/6 418/2/6
f 417/2/6 416/2/6 418/2/6
f 407/2/6 417/2/6 419/2/6
f 418/2/6 408/2/6 420/2/6
f 405/3/6 406/3/6 421/3/6
f 421/3/6 406/3/6 422/3/6
f 419/2/6 420/2/6 423/2/6
f 407/2/6 419/2/6 423/2/6
f 420/2/6 408/2/6 424/2/6
f 423/2/6 420/2/6 424/2/6
f 425/4/6 426/4/6 431/4/6
f 431/4/6 426/4/6 432/4/6
f 427/4/6 428/4/6 433/4/6
f 433/4/6 428/4/6 434/4/6
f 429/4/6 430/4/6 435/4/6
f 435/4/6 430/4/6 436/4/6
f 437/6/6 438/6/6 440/6/6
f 440/6/6 438/6/6 441/6/6
f 439/6/6 440/6/6 443/6/6
f 441/6/6 442/6/6 443/6/6
f 440/6/6 441/6/6 443/6/6
f 443/6/6 442/6/6 444/6/6
f 444/6/6 442/6/6 445/6/6
f 445/6/6 442/6/6 446/6/6
f 444/6/6 445/6/6 447/6/6
f 447/6/6 445/6/6 448/6/6
f 449/7/6 450/7/6 451/7/6
f 451/7/6 450/7/6 452/7/6
f 453/7/6 454/7/6 455/7/6
f 455/7/6 454/7/6 456/7/6
f 457/6/6 458/6/6 459/6/6
f 459/6/6 458/6/6 460/6/6
f 461/7/6 462/7/6 463/7/6
f 461/7/6 463/7/6 465/7/6
f 463/7/6 464/7/6 465/7/6
f 465/7/6 464/7/6 466/7/6
f 467/7/6 468/7/6 469/7/6
f 469/7/6 468/7/6 470/7/6
f 471/7/6 472/7/6 473/7/6
f 473/7/6 472/7/6 474/7/6
f 475/7/6 476/7/6 479/7/6
f 479/7/6 476/7/6 480/7/6
f 477/7/6 478/7/6 481/7/6
f 481/7/6 478/7/6 482/7/6
f 483/7/6 484/7/6 485/7/6
f 485/7/6 484/7/6 486/7/6
f 487/7/6 488/7/6 490/7/6
f 490/7/6 488/7/6 491/7/6
f 489/7/6 490/7/6 493/7/6
f 491/7/6 492/7/6 493/7/6
f 490/7/6 491/7/6 493/7/6
f 493/7/6 492/7/6 494/7/6
f 494/7/6 492/7/6 495/7/6
f 495/7/6 492/7/6 496/7/6
